%TF.GenerationSoftware,KiCad,Pcbnew,(5.1.6)-1*%
%TF.CreationDate,2021-06-09T14:39:38+07:00*%
%TF.ProjectId,test1,74657374-312e-46b6-9963-61645f706362,rev?*%
%TF.SameCoordinates,Original*%
%TF.FileFunction,Legend,Top*%
%TF.FilePolarity,Positive*%
%FSLAX46Y46*%
G04 Gerber Fmt 4.6, Leading zero omitted, Abs format (unit mm)*
G04 Created by KiCad (PCBNEW (5.1.6)-1) date 2021-06-09 14:39:38*
%MOMM*%
%LPD*%
G01*
G04 APERTURE LIST*
%ADD10C,0.120000*%
%ADD11C,0.150000*%
G04 APERTURE END LIST*
D10*
%TO.C,U2*%
X140620000Y-93136000D02*
X140620000Y-72696000D01*
X145861000Y-93136000D02*
X145861000Y-91460000D01*
X145861000Y-89611000D02*
X145861000Y-88920000D01*
X145861000Y-87071000D02*
X145861000Y-86380000D01*
X145861000Y-84531000D02*
X145861000Y-83840000D01*
X145861000Y-81991000D02*
X145861000Y-81300000D01*
X145861000Y-79451000D02*
X145861000Y-78760000D01*
X145861000Y-76911000D02*
X145861000Y-76220000D01*
X145861000Y-74371000D02*
X145861000Y-72696000D01*
X140620000Y-93136000D02*
X145861000Y-93136000D01*
X140620000Y-72696000D02*
X145861000Y-72696000D01*
X142460000Y-93136000D02*
X142460000Y-72696000D01*
X140620000Y-84765000D02*
X142460000Y-84765000D01*
X140620000Y-81066000D02*
X142460000Y-81066000D01*
X145861000Y-91806000D02*
X149270000Y-91806000D01*
X145861000Y-89266000D02*
X149255000Y-89266000D01*
X145861000Y-86726000D02*
X149255000Y-86726000D01*
X145861000Y-84186000D02*
X149255000Y-84186000D01*
X145861000Y-81646000D02*
X149255000Y-81646000D01*
X145861000Y-79106000D02*
X149255000Y-79106000D01*
X145861000Y-76566000D02*
X149255000Y-76566000D01*
X145861000Y-74026000D02*
X149255000Y-74026000D01*
%TO.C,R2*%
X142384000Y-101212000D02*
X142384000Y-100882000D01*
X142384000Y-100882000D02*
X148924000Y-100882000D01*
X148924000Y-100882000D02*
X148924000Y-101212000D01*
X142384000Y-103292000D02*
X142384000Y-103622000D01*
X142384000Y-103622000D02*
X148924000Y-103622000D01*
X148924000Y-103622000D02*
X148924000Y-103292000D01*
%TO.C,R1*%
X142384000Y-97162000D02*
X142384000Y-96832000D01*
X142384000Y-96832000D02*
X148924000Y-96832000D01*
X148924000Y-96832000D02*
X148924000Y-97162000D01*
X142384000Y-99242000D02*
X142384000Y-99572000D01*
X142384000Y-99572000D02*
X148924000Y-99572000D01*
X148924000Y-99572000D02*
X148924000Y-99242000D01*
%TO.C,J3*%
X165228000Y-112126000D02*
G75*
G03*
X165228000Y-112126000I-1780000J0D01*
G01*
X155888000Y-114126000D02*
X166008000Y-114126000D01*
X155888000Y-110126000D02*
X166008000Y-110126000D01*
X155888000Y-109126000D02*
X166008000Y-109126000D01*
X155888000Y-105566000D02*
X166008000Y-105566000D01*
X155888000Y-116186000D02*
X166008000Y-116186000D01*
X155888000Y-105566000D02*
X155888000Y-116186000D01*
X166008000Y-105566000D02*
X166008000Y-116186000D01*
X164798000Y-110993000D02*
X164749000Y-111043000D01*
X162340000Y-113451000D02*
X162316000Y-113476000D01*
X164581000Y-110776000D02*
X164556000Y-110800000D01*
X162148000Y-113209000D02*
X162098000Y-113259000D01*
X155648000Y-114186000D02*
X155648000Y-116426000D01*
X155648000Y-116426000D02*
X157648000Y-116426000D01*
X158478814Y-113906389D02*
G75*
G02*
X157752000Y-113765000I-30814J1780389D01*
G01*
X156808795Y-112821516D02*
G75*
G02*
X156809000Y-111430000I1639205J695516D01*
G01*
X157752484Y-110486795D02*
G75*
G02*
X159144000Y-110487000I695516J-1639205D01*
G01*
X160087205Y-111430484D02*
G75*
G02*
X160087000Y-112822000I-1639205J-695516D01*
G01*
X159143501Y-113764499D02*
G75*
G02*
X158448000Y-113906000I-695501J1638499D01*
G01*
%TO.C,J2*%
X178690000Y-112126000D02*
G75*
G03*
X178690000Y-112126000I-1780000J0D01*
G01*
X169350000Y-114126000D02*
X179470000Y-114126000D01*
X169350000Y-110126000D02*
X179470000Y-110126000D01*
X169350000Y-109126000D02*
X179470000Y-109126000D01*
X169350000Y-105566000D02*
X179470000Y-105566000D01*
X169350000Y-116186000D02*
X179470000Y-116186000D01*
X169350000Y-105566000D02*
X169350000Y-116186000D01*
X179470000Y-105566000D02*
X179470000Y-116186000D01*
X178260000Y-110993000D02*
X178211000Y-111043000D01*
X175802000Y-113451000D02*
X175778000Y-113476000D01*
X178043000Y-110776000D02*
X178018000Y-110800000D01*
X175610000Y-113209000D02*
X175560000Y-113259000D01*
X169110000Y-114186000D02*
X169110000Y-116426000D01*
X169110000Y-116426000D02*
X171110000Y-116426000D01*
X171940814Y-113906389D02*
G75*
G02*
X171214000Y-113765000I-30814J1780389D01*
G01*
X170270795Y-112821516D02*
G75*
G02*
X170271000Y-111430000I1639205J695516D01*
G01*
X171214484Y-110486795D02*
G75*
G02*
X172606000Y-110487000I695516J-1639205D01*
G01*
X173549205Y-111430484D02*
G75*
G02*
X173549000Y-112822000I-1639205J-695516D01*
G01*
X172605501Y-113764499D02*
G75*
G02*
X171910000Y-113906000I-695501J1638499D01*
G01*
%TO.C,J1*%
X145434000Y-118566000D02*
X139124000Y-118566000D01*
X139124000Y-118566000D02*
X139124000Y-106846000D01*
X139124000Y-106846000D02*
X140544000Y-106846000D01*
X140544000Y-106846000D02*
X140544000Y-111346000D01*
X145434000Y-118566000D02*
X151744000Y-118566000D01*
X151744000Y-118566000D02*
X151744000Y-106846000D01*
X151744000Y-106846000D02*
X150324000Y-106846000D01*
X150324000Y-106846000D02*
X150324000Y-111346000D01*
X141434000Y-112456000D02*
X141434000Y-117956000D01*
X141434000Y-117956000D02*
X141934000Y-117956000D01*
X141934000Y-117956000D02*
X141934000Y-112456000D01*
X141934000Y-112456000D02*
X141434000Y-112456000D01*
X143934000Y-112456000D02*
X143934000Y-117956000D01*
X143934000Y-117956000D02*
X144434000Y-117956000D01*
X144434000Y-117956000D02*
X144434000Y-112456000D01*
X144434000Y-112456000D02*
X143934000Y-112456000D01*
X146434000Y-112456000D02*
X146434000Y-117956000D01*
X146434000Y-117956000D02*
X146934000Y-117956000D01*
X146934000Y-117956000D02*
X146934000Y-112456000D01*
X146934000Y-112456000D02*
X146434000Y-112456000D01*
X148934000Y-112456000D02*
X148934000Y-117956000D01*
X148934000Y-117956000D02*
X149434000Y-117956000D01*
X149434000Y-117956000D02*
X149434000Y-112456000D01*
X149434000Y-112456000D02*
X148934000Y-112456000D01*
X141684000Y-109356000D02*
X141384000Y-108756000D01*
X141384000Y-108756000D02*
X141984000Y-108756000D01*
X141984000Y-108756000D02*
X141684000Y-109356000D01*
%TO.C,U2*%
D11*
X139072380Y-83677904D02*
X139881904Y-83677904D01*
X139977142Y-83630285D01*
X140024761Y-83582666D01*
X140072380Y-83487428D01*
X140072380Y-83296952D01*
X140024761Y-83201714D01*
X139977142Y-83154095D01*
X139881904Y-83106476D01*
X139072380Y-83106476D01*
X139167619Y-82677904D02*
X139120000Y-82630285D01*
X139072380Y-82535047D01*
X139072380Y-82296952D01*
X139120000Y-82201714D01*
X139167619Y-82154095D01*
X139262857Y-82106476D01*
X139358095Y-82106476D01*
X139500952Y-82154095D01*
X140072380Y-82725523D01*
X140072380Y-82106476D01*
%TO.C,R2*%
X145487333Y-100334380D02*
X145154000Y-99858190D01*
X144915904Y-100334380D02*
X144915904Y-99334380D01*
X145296857Y-99334380D01*
X145392095Y-99382000D01*
X145439714Y-99429619D01*
X145487333Y-99524857D01*
X145487333Y-99667714D01*
X145439714Y-99762952D01*
X145392095Y-99810571D01*
X145296857Y-99858190D01*
X144915904Y-99858190D01*
X145868285Y-99429619D02*
X145915904Y-99382000D01*
X146011142Y-99334380D01*
X146249238Y-99334380D01*
X146344476Y-99382000D01*
X146392095Y-99429619D01*
X146439714Y-99524857D01*
X146439714Y-99620095D01*
X146392095Y-99762952D01*
X145820666Y-100334380D01*
X146439714Y-100334380D01*
%TO.C,R1*%
X145487333Y-96284380D02*
X145154000Y-95808190D01*
X144915904Y-96284380D02*
X144915904Y-95284380D01*
X145296857Y-95284380D01*
X145392095Y-95332000D01*
X145439714Y-95379619D01*
X145487333Y-95474857D01*
X145487333Y-95617714D01*
X145439714Y-95712952D01*
X145392095Y-95760571D01*
X145296857Y-95808190D01*
X144915904Y-95808190D01*
X146439714Y-96284380D02*
X145868285Y-96284380D01*
X146154000Y-96284380D02*
X146154000Y-95284380D01*
X146058761Y-95427238D01*
X145963523Y-95522476D01*
X145868285Y-95570095D01*
%TO.C,J3*%
X160614666Y-104018380D02*
X160614666Y-104732666D01*
X160567047Y-104875523D01*
X160471809Y-104970761D01*
X160328952Y-105018380D01*
X160233714Y-105018380D01*
X160995619Y-104018380D02*
X161614666Y-104018380D01*
X161281333Y-104399333D01*
X161424190Y-104399333D01*
X161519428Y-104446952D01*
X161567047Y-104494571D01*
X161614666Y-104589809D01*
X161614666Y-104827904D01*
X161567047Y-104923142D01*
X161519428Y-104970761D01*
X161424190Y-105018380D01*
X161138476Y-105018380D01*
X161043238Y-104970761D01*
X160995619Y-104923142D01*
%TO.C,J2*%
X174076666Y-104018380D02*
X174076666Y-104732666D01*
X174029047Y-104875523D01*
X173933809Y-104970761D01*
X173790952Y-105018380D01*
X173695714Y-105018380D01*
X174505238Y-104113619D02*
X174552857Y-104066000D01*
X174648095Y-104018380D01*
X174886190Y-104018380D01*
X174981428Y-104066000D01*
X175029047Y-104113619D01*
X175076666Y-104208857D01*
X175076666Y-104304095D01*
X175029047Y-104446952D01*
X174457619Y-105018380D01*
X175076666Y-105018380D01*
%TO.C,J1*%
X145100666Y-105208380D02*
X145100666Y-105922666D01*
X145053047Y-106065523D01*
X144957809Y-106160761D01*
X144814952Y-106208380D01*
X144719714Y-106208380D01*
X146100666Y-106208380D02*
X145529238Y-106208380D01*
X145814952Y-106208380D02*
X145814952Y-105208380D01*
X145719714Y-105351238D01*
X145624476Y-105446476D01*
X145529238Y-105494095D01*
%TD*%
M02*
