%TF.GenerationSoftware,KiCad,Pcbnew,(5.1.6)-1*%
%TF.CreationDate,2021-07-06T14:07:52+07:00*%
%TF.ProjectId,test1,74657374-312e-46b6-9963-61645f706362,rev?*%
%TF.SameCoordinates,Original*%
%TF.FileFunction,Soldermask,Top*%
%TF.FilePolarity,Negative*%
%FSLAX46Y46*%
G04 Gerber Fmt 4.6, Leading zero omitted, Abs format (unit mm)*
G04 Created by KiCad (PCBNEW (5.1.6)-1) date 2021-07-06 14:07:52*
%MOMM*%
%LPD*%
G01*
G04 APERTURE LIST*
%ADD10R,1.200000X1.650000*%
%ADD11O,1.200000X1.650000*%
%ADD12O,2.305000X2.400000*%
%ADD13R,2.305000X2.400000*%
%ADD14O,2.000000X2.000000*%
%ADD15C,2.000000*%
%ADD16O,2.100000X2.400000*%
%ADD17O,2.100000X2.350000*%
%ADD18O,2.600000X2.600000*%
%ADD19R,2.600000X2.600000*%
%ADD20C,2.200000*%
%ADD21R,2.200000X2.200000*%
%ADD22O,2.200000X2.200000*%
%ADD23C,3.200000*%
%ADD24R,3.200000X3.200000*%
%ADD25O,2.100000X2.100000*%
%ADD26R,2.100000X2.100000*%
G04 APERTURE END LIST*
D10*
%TO.C,U3*%
X156162000Y-100188000D03*
D11*
X158702000Y-100188000D03*
X157432000Y-100188000D03*
%TD*%
D12*
%TO.C,U1*%
X187404000Y-91044000D03*
X184864000Y-91044000D03*
D13*
X182324000Y-91044000D03*
%TD*%
D14*
%TO.C,R100*%
X181054000Y-96124000D03*
D15*
X181054000Y-103744000D03*
%TD*%
D16*
%TO.C,limit switch*%
X166028000Y-109078000D03*
G36*
G01*
X162478000Y-109969177D02*
X162478000Y-108186823D01*
G75*
G02*
X162786823Y-107878000I308823J0D01*
G01*
X164269177Y-107878000D01*
G75*
G02*
X164578000Y-108186823I0J-308823D01*
G01*
X164578000Y-109969177D01*
G75*
G02*
X164269177Y-110278000I-308823J0D01*
G01*
X162786823Y-110278000D01*
G75*
G02*
X162478000Y-109969177I0J308823D01*
G01*
G37*
%TD*%
D17*
%TO.C,end-effector*%
X188808000Y-110602000D03*
X186308000Y-110602000D03*
X183808000Y-110602000D03*
G36*
G01*
X180258000Y-111468177D02*
X180258000Y-109735823D01*
G75*
G02*
X180566823Y-109427000I308823J0D01*
G01*
X182049177Y-109427000D01*
G75*
G02*
X182358000Y-109735823I0J-308823D01*
G01*
X182358000Y-111468177D01*
G75*
G02*
X182049177Y-111777000I-308823J0D01*
G01*
X180566823Y-111777000D01*
G75*
G02*
X180258000Y-111468177I0J308823D01*
G01*
G37*
%TD*%
D18*
%TO.C,D6*%
X166830000Y-92314000D03*
D19*
X156670000Y-92314000D03*
%TD*%
D18*
%TO.C,D5*%
X166830000Y-87996000D03*
D19*
X156670000Y-87996000D03*
%TD*%
D18*
%TO.C,D4*%
X152098000Y-92314000D03*
D19*
X141938000Y-92314000D03*
%TD*%
D18*
%TO.C,D3*%
X152098000Y-87996000D03*
D19*
X141938000Y-87996000D03*
%TD*%
D20*
%TO.C,D2*%
X174704000Y-108824000D03*
D21*
X172164000Y-108824000D03*
%TD*%
D20*
%TO.C,D1*%
X157432000Y-108824000D03*
D21*
X154892000Y-108824000D03*
%TD*%
D15*
%TO.C,C4*%
X166290000Y-99934000D03*
X164290000Y-99934000D03*
%TD*%
%TO.C,C3*%
X188388000Y-99172000D03*
X186388000Y-99172000D03*
%TD*%
%TO.C,C2*%
X175680000Y-99680000D03*
X173180000Y-99680000D03*
%TD*%
%TO.C,C1*%
X175680000Y-90028000D03*
X173180000Y-90028000D03*
%TD*%
D22*
%TO.C,U2*%
X173688000Y-83170000D03*
X172418000Y-78090000D03*
X171148000Y-83170000D03*
X169878000Y-78090000D03*
X168608000Y-83170000D03*
X167338000Y-78090000D03*
X166068000Y-83170000D03*
X164798000Y-78090000D03*
X163528000Y-83170000D03*
X162258000Y-78090000D03*
X160988000Y-83170000D03*
X159718000Y-78090000D03*
X158448000Y-83170000D03*
X157178000Y-78090000D03*
D21*
X155908000Y-83170000D03*
%TD*%
D14*
%TO.C,R2*%
X149464000Y-102252000D03*
D15*
X141844000Y-102252000D03*
%TD*%
D14*
%TO.C,R1*%
X149464000Y-98202000D03*
D15*
X141844000Y-98202000D03*
%TD*%
D23*
%TO.C,J3*%
X142272000Y-77328000D03*
D24*
X147272000Y-77328000D03*
%TD*%
D23*
%TO.C,J2*%
X182912000Y-77582000D03*
D24*
X187912000Y-77582000D03*
%TD*%
D17*
%TO.C,encoder*%
X148930000Y-110602000D03*
X146430000Y-110602000D03*
X143930000Y-110602000D03*
G36*
G01*
X140380000Y-111468177D02*
X140380000Y-109735823D01*
G75*
G02*
X140688823Y-109427000I308823J0D01*
G01*
X142171177Y-109427000D01*
G75*
G02*
X142480000Y-109735823I0J-308823D01*
G01*
X142480000Y-111468177D01*
G75*
G02*
X142171177Y-111777000I-308823J0D01*
G01*
X140688823Y-111777000D01*
G75*
G02*
X140380000Y-111468177I0J308823D01*
G01*
G37*
%TD*%
D25*
%TO.C,CN10*%
X196750000Y-116960000D03*
X194210000Y-116960000D03*
X196750000Y-114420000D03*
X194210000Y-114420000D03*
X196750000Y-111880000D03*
X194210000Y-111880000D03*
X196750000Y-109340000D03*
X194210000Y-109340000D03*
X196750000Y-106800000D03*
X194210000Y-106800000D03*
X196750000Y-104260000D03*
X194210000Y-104260000D03*
X196750000Y-101720000D03*
X194210000Y-101720000D03*
X196750000Y-99180000D03*
X194210000Y-99180000D03*
X196750000Y-96640000D03*
X194210000Y-96640000D03*
X196750000Y-94100000D03*
X194210000Y-94100000D03*
X196750000Y-91560000D03*
X194210000Y-91560000D03*
X196750000Y-89020000D03*
X194210000Y-89020000D03*
X196750000Y-86480000D03*
X194210000Y-86480000D03*
X196750000Y-83940000D03*
X194210000Y-83940000D03*
X196750000Y-81400000D03*
X194210000Y-81400000D03*
X196750000Y-78860000D03*
X194210000Y-78860000D03*
X196750000Y-76320000D03*
X194210000Y-76320000D03*
X196750000Y-73780000D03*
X194210000Y-73780000D03*
X196750000Y-71240000D03*
D26*
X194210000Y-71240000D03*
%TD*%
D25*
%TO.C,CN7*%
X135790000Y-116960000D03*
X133250000Y-116960000D03*
X135790000Y-114420000D03*
X133250000Y-114420000D03*
X135790000Y-111880000D03*
X133250000Y-111880000D03*
X135790000Y-109340000D03*
X133250000Y-109340000D03*
X135790000Y-106800000D03*
X133250000Y-106800000D03*
X135790000Y-104260000D03*
X133250000Y-104260000D03*
X135790000Y-101720000D03*
X133250000Y-101720000D03*
X135790000Y-99180000D03*
X133250000Y-99180000D03*
X135790000Y-96640000D03*
X133250000Y-96640000D03*
X135790000Y-94100000D03*
X133250000Y-94100000D03*
X135790000Y-91560000D03*
X133250000Y-91560000D03*
X135790000Y-89020000D03*
X133250000Y-89020000D03*
X135790000Y-86480000D03*
X133250000Y-86480000D03*
X135790000Y-83940000D03*
X133250000Y-83940000D03*
X135790000Y-81400000D03*
X133250000Y-81400000D03*
X135790000Y-78860000D03*
X133250000Y-78860000D03*
X135790000Y-76320000D03*
X133250000Y-76320000D03*
X135790000Y-73780000D03*
X133250000Y-73780000D03*
X135790000Y-71240000D03*
D26*
X133250000Y-71240000D03*
%TD*%
M02*
