%TF.GenerationSoftware,KiCad,Pcbnew,(5.1.6)-1*%
%TF.CreationDate,2021-06-09T14:39:38+07:00*%
%TF.ProjectId,test1,74657374-312e-46b6-9963-61645f706362,rev?*%
%TF.SameCoordinates,Original*%
%TF.FileFunction,Legend,Bot*%
%TF.FilePolarity,Positive*%
%FSLAX46Y46*%
G04 Gerber Fmt 4.6, Leading zero omitted, Abs format (unit mm)*
G04 Created by KiCad (PCBNEW (5.1.6)-1) date 2021-06-09 14:39:38*
%MOMM*%
%LPD*%
G01*
G04 APERTURE LIST*
%ADD10C,0.300000*%
%ADD11C,0.120000*%
%ADD12C,0.150000*%
G04 APERTURE END LIST*
D10*
X169142857Y-121107142D02*
X168928571Y-121178571D01*
X168571428Y-121178571D01*
X168428571Y-121107142D01*
X168357142Y-121035714D01*
X168285714Y-120892857D01*
X168285714Y-120750000D01*
X168357142Y-120607142D01*
X168428571Y-120535714D01*
X168571428Y-120464285D01*
X168857142Y-120392857D01*
X169000000Y-120321428D01*
X169071428Y-120250000D01*
X169142857Y-120107142D01*
X169142857Y-119964285D01*
X169071428Y-119821428D01*
X169000000Y-119750000D01*
X168857142Y-119678571D01*
X168500000Y-119678571D01*
X168285714Y-119750000D01*
X167857142Y-119678571D02*
X167000000Y-119678571D01*
X167428571Y-121178571D02*
X167428571Y-119678571D01*
X166500000Y-121178571D02*
X166500000Y-119678571D01*
X166000000Y-120750000D01*
X165500000Y-119678571D01*
X165500000Y-121178571D01*
X164928571Y-119678571D02*
X164000000Y-119678571D01*
X164500000Y-120250000D01*
X164285714Y-120250000D01*
X164142857Y-120321428D01*
X164071428Y-120392857D01*
X164000000Y-120535714D01*
X164000000Y-120892857D01*
X164071428Y-121035714D01*
X164142857Y-121107142D01*
X164285714Y-121178571D01*
X164714285Y-121178571D01*
X164857142Y-121107142D01*
X164928571Y-121035714D01*
X163428571Y-119821428D02*
X163357142Y-119750000D01*
X163214285Y-119678571D01*
X162857142Y-119678571D01*
X162714285Y-119750000D01*
X162642857Y-119821428D01*
X162571428Y-119964285D01*
X162571428Y-120107142D01*
X162642857Y-120321428D01*
X163500000Y-121178571D01*
X162571428Y-121178571D01*
X160785714Y-121178571D02*
X160785714Y-119678571D01*
X160285714Y-120750000D01*
X159785714Y-119678571D01*
X159785714Y-121178571D01*
X158857142Y-121178571D02*
X159000000Y-121107142D01*
X159071428Y-121035714D01*
X159142857Y-120892857D01*
X159142857Y-120464285D01*
X159071428Y-120321428D01*
X159000000Y-120250000D01*
X158857142Y-120178571D01*
X158642857Y-120178571D01*
X158500000Y-120250000D01*
X158428571Y-120321428D01*
X158357142Y-120464285D01*
X158357142Y-120892857D01*
X158428571Y-121035714D01*
X158500000Y-121107142D01*
X158642857Y-121178571D01*
X158857142Y-121178571D01*
X157714285Y-121178571D02*
X157714285Y-120178571D01*
X157714285Y-120464285D02*
X157642857Y-120321428D01*
X157571428Y-120250000D01*
X157428571Y-120178571D01*
X157285714Y-120178571D01*
X156785714Y-120178571D02*
X156785714Y-121678571D01*
X156785714Y-120250000D02*
X156642857Y-120178571D01*
X156357142Y-120178571D01*
X156214285Y-120250000D01*
X156142857Y-120321428D01*
X156071428Y-120464285D01*
X156071428Y-120892857D01*
X156142857Y-121035714D01*
X156214285Y-121107142D01*
X156357142Y-121178571D01*
X156642857Y-121178571D01*
X156785714Y-121107142D01*
X155428571Y-121178571D02*
X155428571Y-119678571D01*
X154785714Y-121178571D02*
X154785714Y-120392857D01*
X154857142Y-120250000D01*
X155000000Y-120178571D01*
X155214285Y-120178571D01*
X155357142Y-120250000D01*
X155428571Y-120321428D01*
X153857142Y-121178571D02*
X154000000Y-121107142D01*
X154071428Y-121035714D01*
X154142857Y-120892857D01*
X154142857Y-120464285D01*
X154071428Y-120321428D01*
X154000000Y-120250000D01*
X153857142Y-120178571D01*
X153642857Y-120178571D01*
X153500000Y-120250000D01*
X153428571Y-120321428D01*
X153357142Y-120464285D01*
X153357142Y-120892857D01*
X153428571Y-121035714D01*
X153500000Y-121107142D01*
X153642857Y-121178571D01*
X153857142Y-121178571D01*
D11*
%TO.C,CN10*%
X198080000Y-69910000D02*
X195480000Y-69910000D01*
X198080000Y-69910000D02*
X198080000Y-118290000D01*
X198080000Y-118290000D02*
X192880000Y-118290000D01*
X192880000Y-72510000D02*
X192880000Y-118290000D01*
X195480000Y-72510000D02*
X192880000Y-72510000D01*
X195480000Y-69910000D02*
X195480000Y-72510000D01*
X192880000Y-69910000D02*
X192880000Y-71240000D01*
X194210000Y-69910000D02*
X192880000Y-69910000D01*
%TO.C,CN7*%
X137120000Y-69910000D02*
X134520000Y-69910000D01*
X137120000Y-69910000D02*
X137120000Y-118290000D01*
X137120000Y-118290000D02*
X131920000Y-118290000D01*
X131920000Y-72510000D02*
X131920000Y-118290000D01*
X134520000Y-72510000D02*
X131920000Y-72510000D01*
X134520000Y-69910000D02*
X134520000Y-72510000D01*
X131920000Y-69910000D02*
X131920000Y-71240000D01*
X133250000Y-69910000D02*
X131920000Y-69910000D01*
%TO.C,CN10*%
D12*
X196646666Y-68827142D02*
X196694285Y-68874761D01*
X196837142Y-68922380D01*
X196932380Y-68922380D01*
X197075238Y-68874761D01*
X197170476Y-68779523D01*
X197218095Y-68684285D01*
X197265714Y-68493809D01*
X197265714Y-68350952D01*
X197218095Y-68160476D01*
X197170476Y-68065238D01*
X197075238Y-67970000D01*
X196932380Y-67922380D01*
X196837142Y-67922380D01*
X196694285Y-67970000D01*
X196646666Y-68017619D01*
X196218095Y-68922380D02*
X196218095Y-67922380D01*
X195646666Y-68922380D01*
X195646666Y-67922380D01*
X194646666Y-68922380D02*
X195218095Y-68922380D01*
X194932380Y-68922380D02*
X194932380Y-67922380D01*
X195027619Y-68065238D01*
X195122857Y-68160476D01*
X195218095Y-68208095D01*
X194027619Y-67922380D02*
X193932380Y-67922380D01*
X193837142Y-67970000D01*
X193789523Y-68017619D01*
X193741904Y-68112857D01*
X193694285Y-68303333D01*
X193694285Y-68541428D01*
X193741904Y-68731904D01*
X193789523Y-68827142D01*
X193837142Y-68874761D01*
X193932380Y-68922380D01*
X194027619Y-68922380D01*
X194122857Y-68874761D01*
X194170476Y-68827142D01*
X194218095Y-68731904D01*
X194265714Y-68541428D01*
X194265714Y-68303333D01*
X194218095Y-68112857D01*
X194170476Y-68017619D01*
X194122857Y-67970000D01*
X194027619Y-67922380D01*
%TO.C,CN7*%
X135210476Y-68827142D02*
X135258095Y-68874761D01*
X135400952Y-68922380D01*
X135496190Y-68922380D01*
X135639047Y-68874761D01*
X135734285Y-68779523D01*
X135781904Y-68684285D01*
X135829523Y-68493809D01*
X135829523Y-68350952D01*
X135781904Y-68160476D01*
X135734285Y-68065238D01*
X135639047Y-67970000D01*
X135496190Y-67922380D01*
X135400952Y-67922380D01*
X135258095Y-67970000D01*
X135210476Y-68017619D01*
X134781904Y-68922380D02*
X134781904Y-67922380D01*
X134210476Y-68922380D01*
X134210476Y-67922380D01*
X133829523Y-67922380D02*
X133162857Y-67922380D01*
X133591428Y-68922380D01*
%TD*%
M02*
