%TF.GenerationSoftware,KiCad,Pcbnew,(5.1.6)-1*%
%TF.CreationDate,2021-06-09T14:39:38+07:00*%
%TF.ProjectId,test1,74657374-312e-46b6-9963-61645f706362,rev?*%
%TF.SameCoordinates,Original*%
%TF.FileFunction,Copper,L1,Top*%
%TF.FilePolarity,Positive*%
%FSLAX46Y46*%
G04 Gerber Fmt 4.6, Leading zero omitted, Abs format (unit mm)*
G04 Created by KiCad (PCBNEW (5.1.6)-1) date 2021-06-09 14:39:38*
%MOMM*%
%LPD*%
G01*
G04 APERTURE LIST*
%TA.AperFunction,ComponentPad*%
%ADD10O,1.800000X1.800000*%
%TD*%
%TA.AperFunction,ComponentPad*%
%ADD11R,1.800000X1.800000*%
%TD*%
%TA.AperFunction,ComponentPad*%
%ADD12O,1.600000X1.600000*%
%TD*%
%TA.AperFunction,ComponentPad*%
%ADD13C,1.600000*%
%TD*%
%TA.AperFunction,ComponentPad*%
%ADD14C,2.800000*%
%TD*%
%TA.AperFunction,ComponentPad*%
%ADD15R,2.800000X2.800000*%
%TD*%
%TA.AperFunction,ComponentPad*%
%ADD16O,1.700000X1.950000*%
%TD*%
%TA.AperFunction,ComponentPad*%
%ADD17O,1.700000X1.700000*%
%TD*%
%TA.AperFunction,ComponentPad*%
%ADD18R,1.700000X1.700000*%
%TD*%
%TA.AperFunction,Conductor*%
%ADD19C,1.000000*%
%TD*%
%TA.AperFunction,Conductor*%
%ADD20C,0.250000*%
%TD*%
G04 APERTURE END LIST*
D10*
%TO.P,U2,15*%
%TO.N,Net-(U2-Pad15)*%
X150320000Y-74026000D03*
%TO.P,U2,14*%
%TO.N,Net-(U2-Pad14)*%
X145240000Y-75296000D03*
%TO.P,U2,13*%
%TO.N,Net-(U2-Pad13)*%
X150320000Y-76566000D03*
%TO.P,U2,12*%
%TO.N,Net-(U2-Pad12)*%
X145240000Y-77836000D03*
%TO.P,U2,11*%
%TO.N,Net-(U2-Pad11)*%
X150320000Y-79106000D03*
%TO.P,U2,10*%
%TO.N,Net-(U2-Pad10)*%
X145240000Y-80376000D03*
%TO.P,U2,9*%
%TO.N,+3V3*%
X150320000Y-81646000D03*
%TO.P,U2,8*%
%TO.N,GND*%
X145240000Y-82916000D03*
%TO.P,U2,7*%
%TO.N,/motor_inb*%
X150320000Y-84186000D03*
%TO.P,U2,6*%
%TO.N,/motro_pwm*%
X145240000Y-85456000D03*
%TO.P,U2,5*%
%TO.N,/motor_ina*%
X150320000Y-86726000D03*
%TO.P,U2,4*%
%TO.N,+12V*%
X145240000Y-87996000D03*
%TO.P,U2,3*%
%TO.N,Net-(J2-Pad2)*%
X150320000Y-89266000D03*
%TO.P,U2,2*%
%TO.N,Net-(J2-Pad1)*%
X145240000Y-90536000D03*
D11*
%TO.P,U2,1*%
%TO.N,Net-(U2-Pad1)*%
X150320000Y-91806000D03*
%TD*%
D12*
%TO.P,R2,2*%
%TO.N,/enc_b*%
X149464000Y-102252000D03*
D13*
%TO.P,R2,1*%
%TO.N,+5V*%
X141844000Y-102252000D03*
%TD*%
D12*
%TO.P,R1,2*%
%TO.N,/enc_a*%
X149464000Y-98202000D03*
D13*
%TO.P,R1,1*%
%TO.N,+5V*%
X141844000Y-98202000D03*
%TD*%
D14*
%TO.P,J3,2*%
%TO.N,GND*%
X163448000Y-112126000D03*
D15*
%TO.P,J3,1*%
%TO.N,+12V*%
X158448000Y-112126000D03*
%TD*%
D14*
%TO.P,J2,2*%
%TO.N,Net-(J2-Pad2)*%
X176910000Y-112126000D03*
D15*
%TO.P,J2,1*%
%TO.N,Net-(J2-Pad1)*%
X171910000Y-112126000D03*
%TD*%
D16*
%TO.P,J1,4*%
%TO.N,GND*%
X149184000Y-110856000D03*
%TO.P,J1,3*%
%TO.N,/enc_b*%
X146684000Y-110856000D03*
%TO.P,J1,2*%
%TO.N,/enc_a*%
X144184000Y-110856000D03*
%TO.P,J1,1*%
%TO.N,+5V*%
%TA.AperFunction,ComponentPad*%
G36*
G01*
X140834000Y-111581000D02*
X140834000Y-110131000D01*
G75*
G02*
X141084000Y-109881000I250000J0D01*
G01*
X142284000Y-109881000D01*
G75*
G02*
X142534000Y-110131000I0J-250000D01*
G01*
X142534000Y-111581000D01*
G75*
G02*
X142284000Y-111831000I-250000J0D01*
G01*
X141084000Y-111831000D01*
G75*
G02*
X140834000Y-111581000I0J250000D01*
G01*
G37*
%TD.AperFunction*%
%TD*%
D17*
%TO.P,CN10,38*%
%TO.N,Net-(CN10-Pad38)*%
X196750000Y-116960000D03*
%TO.P,CN10,37*%
%TO.N,Net-(CN10-Pad37)*%
X194210000Y-116960000D03*
%TO.P,CN10,36*%
%TO.N,Net-(CN10-Pad36)*%
X196750000Y-114420000D03*
%TO.P,CN10,35*%
%TO.N,Net-(CN10-Pad35)*%
X194210000Y-114420000D03*
%TO.P,CN10,34*%
%TO.N,Net-(CN10-Pad34)*%
X196750000Y-111880000D03*
%TO.P,CN10,33*%
%TO.N,Net-(CN10-Pad33)*%
X194210000Y-111880000D03*
%TO.P,CN10,32*%
%TO.N,Net-(CN10-Pad32)*%
X196750000Y-109340000D03*
%TO.P,CN10,31*%
%TO.N,Net-(CN10-Pad31)*%
X194210000Y-109340000D03*
%TO.P,CN10,30*%
%TO.N,Net-(CN10-Pad30)*%
X196750000Y-106800000D03*
%TO.P,CN10,29*%
%TO.N,Net-(CN10-Pad29)*%
X194210000Y-106800000D03*
%TO.P,CN10,28*%
%TO.N,Net-(CN10-Pad28)*%
X196750000Y-104260000D03*
%TO.P,CN10,27*%
%TO.N,Net-(CN10-Pad27)*%
X194210000Y-104260000D03*
%TO.P,CN10,26*%
%TO.N,Net-(CN10-Pad26)*%
X196750000Y-101720000D03*
%TO.P,CN10,25*%
%TO.N,Net-(CN10-Pad25)*%
X194210000Y-101720000D03*
%TO.P,CN10,24*%
%TO.N,Net-(CN10-Pad24)*%
X196750000Y-99180000D03*
%TO.P,CN10,23*%
%TO.N,/enc_a*%
X194210000Y-99180000D03*
%TO.P,CN10,22*%
%TO.N,Net-(CN10-Pad22)*%
X196750000Y-96640000D03*
%TO.P,CN10,21*%
%TO.N,/enc_b*%
X194210000Y-96640000D03*
%TO.P,CN10,20*%
%TO.N,Net-(CN10-Pad20)*%
X196750000Y-94100000D03*
%TO.P,CN10,19*%
%TO.N,Net-(CN10-Pad19)*%
X194210000Y-94100000D03*
%TO.P,CN10,18*%
%TO.N,Net-(CN10-Pad18)*%
X196750000Y-91560000D03*
%TO.P,CN10,17*%
%TO.N,Net-(CN10-Pad17)*%
X194210000Y-91560000D03*
%TO.P,CN10,16*%
%TO.N,Net-(CN10-Pad16)*%
X196750000Y-89020000D03*
%TO.P,CN10,15*%
%TO.N,Net-(CN10-Pad15)*%
X194210000Y-89020000D03*
%TO.P,CN10,14*%
%TO.N,Net-(CN10-Pad14)*%
X196750000Y-86480000D03*
%TO.P,CN10,13*%
%TO.N,/motro_pwm*%
X194210000Y-86480000D03*
%TO.P,CN10,12*%
%TO.N,Net-(CN10-Pad12)*%
X196750000Y-83940000D03*
%TO.P,CN10,11*%
%TO.N,Net-(CN10-Pad11)*%
X194210000Y-83940000D03*
%TO.P,CN10,10*%
%TO.N,Net-(CN10-Pad10)*%
X196750000Y-81400000D03*
%TO.P,CN10,9*%
%TO.N,Net-(CN10-Pad9)*%
X194210000Y-81400000D03*
%TO.P,CN10,8*%
%TO.N,Net-(CN10-Pad8)*%
X196750000Y-78860000D03*
%TO.P,CN10,7*%
%TO.N,Net-(CN10-Pad7)*%
X194210000Y-78860000D03*
%TO.P,CN10,6*%
%TO.N,Net-(CN10-Pad6)*%
X196750000Y-76320000D03*
%TO.P,CN10,5*%
%TO.N,Net-(CN10-Pad5)*%
X194210000Y-76320000D03*
%TO.P,CN10,4*%
%TO.N,Net-(CN10-Pad4)*%
X196750000Y-73780000D03*
%TO.P,CN10,3*%
%TO.N,Net-(CN10-Pad3)*%
X194210000Y-73780000D03*
%TO.P,CN10,2*%
%TO.N,/motor_ina*%
X196750000Y-71240000D03*
D18*
%TO.P,CN10,1*%
%TO.N,/motor_inb*%
X194210000Y-71240000D03*
%TD*%
D17*
%TO.P,CN7,38*%
%TO.N,Net-(CN7-Pad38)*%
X135790000Y-116960000D03*
%TO.P,CN7,37*%
%TO.N,Net-(CN7-Pad37)*%
X133250000Y-116960000D03*
%TO.P,CN7,36*%
%TO.N,Net-(CN7-Pad36)*%
X135790000Y-114420000D03*
%TO.P,CN7,35*%
%TO.N,Net-(CN7-Pad35)*%
X133250000Y-114420000D03*
%TO.P,CN7,34*%
%TO.N,Net-(CN7-Pad34)*%
X135790000Y-111880000D03*
%TO.P,CN7,33*%
%TO.N,Net-(CN7-Pad33)*%
X133250000Y-111880000D03*
%TO.P,CN7,32*%
%TO.N,Net-(CN7-Pad32)*%
X135790000Y-109340000D03*
%TO.P,CN7,31*%
%TO.N,Net-(CN7-Pad31)*%
X133250000Y-109340000D03*
%TO.P,CN7,30*%
%TO.N,Net-(CN7-Pad30)*%
X135790000Y-106800000D03*
%TO.P,CN7,29*%
%TO.N,Net-(CN7-Pad29)*%
X133250000Y-106800000D03*
%TO.P,CN7,28*%
%TO.N,Net-(CN7-Pad28)*%
X135790000Y-104260000D03*
%TO.P,CN7,27*%
%TO.N,Net-(CN7-Pad27)*%
X133250000Y-104260000D03*
%TO.P,CN7,26*%
%TO.N,Net-(CN7-Pad26)*%
X135790000Y-101720000D03*
%TO.P,CN7,25*%
%TO.N,Net-(CN7-Pad25)*%
X133250000Y-101720000D03*
%TO.P,CN7,24*%
%TO.N,Net-(CN7-Pad24)*%
X135790000Y-99180000D03*
%TO.P,CN7,23*%
%TO.N,Net-(CN7-Pad23)*%
X133250000Y-99180000D03*
%TO.P,CN7,22*%
%TO.N,GND*%
X135790000Y-96640000D03*
%TO.P,CN7,21*%
%TO.N,Net-(CN7-Pad21)*%
X133250000Y-96640000D03*
%TO.P,CN7,20*%
%TO.N,Net-(CN7-Pad20)*%
X135790000Y-94100000D03*
%TO.P,CN7,19*%
%TO.N,Net-(CN7-Pad19)*%
X133250000Y-94100000D03*
%TO.P,CN7,18*%
%TO.N,+5V*%
X135790000Y-91560000D03*
%TO.P,CN7,17*%
%TO.N,Net-(CN7-Pad17)*%
X133250000Y-91560000D03*
%TO.P,CN7,16*%
%TO.N,+3V3*%
X135790000Y-89020000D03*
%TO.P,CN7,15*%
%TO.N,Net-(CN7-Pad15)*%
X133250000Y-89020000D03*
%TO.P,CN7,14*%
%TO.N,Net-(CN7-Pad14)*%
X135790000Y-86480000D03*
%TO.P,CN7,13*%
%TO.N,Net-(CN7-Pad13)*%
X133250000Y-86480000D03*
%TO.P,CN7,12*%
%TO.N,Net-(CN7-Pad12)*%
X135790000Y-83940000D03*
%TO.P,CN7,11*%
%TO.N,Net-(CN7-Pad11)*%
X133250000Y-83940000D03*
%TO.P,CN7,10*%
%TO.N,Net-(CN7-Pad10)*%
X135790000Y-81400000D03*
%TO.P,CN7,9*%
%TO.N,Net-(CN7-Pad9)*%
X133250000Y-81400000D03*
%TO.P,CN7,8*%
%TO.N,Net-(CN7-Pad8)*%
X135790000Y-78860000D03*
%TO.P,CN7,7*%
%TO.N,Net-(CN7-Pad7)*%
X133250000Y-78860000D03*
%TO.P,CN7,6*%
%TO.N,Net-(CN7-Pad6)*%
X135790000Y-76320000D03*
%TO.P,CN7,5*%
%TO.N,Net-(CN7-Pad5)*%
X133250000Y-76320000D03*
%TO.P,CN7,4*%
%TO.N,Net-(CN7-Pad4)*%
X135790000Y-73780000D03*
%TO.P,CN7,3*%
%TO.N,Net-(CN7-Pad3)*%
X133250000Y-73780000D03*
%TO.P,CN7,2*%
%TO.N,Net-(CN7-Pad2)*%
X135790000Y-71240000D03*
D18*
%TO.P,CN7,1*%
%TO.N,Net-(CN7-Pad1)*%
X133250000Y-71240000D03*
%TD*%
D19*
%TO.N,GND*%
X149184000Y-110856000D02*
X150934300Y-110856000D01*
X150934300Y-110856000D02*
X154504700Y-114426400D01*
X154504700Y-114426400D02*
X161147600Y-114426400D01*
X161147600Y-114426400D02*
X163448000Y-112126000D01*
X145240000Y-82916000D02*
X143439700Y-82916000D01*
X135790000Y-96640000D02*
X140812200Y-91617800D01*
X140812200Y-91617800D02*
X140812200Y-85543500D01*
X140812200Y-85543500D02*
X143439700Y-82916000D01*
D20*
%TO.N,+5V*%
X141844000Y-102252000D02*
X141684000Y-102412000D01*
X141684000Y-102412000D02*
X141684000Y-110856000D01*
%TO.N,/enc_a*%
X149464000Y-98202000D02*
X150639300Y-98202000D01*
X194210000Y-99180000D02*
X151617300Y-99180000D01*
X151617300Y-99180000D02*
X150639300Y-98202000D01*
%TO.N,/enc_b*%
X149464000Y-102252000D02*
X150639300Y-102252000D01*
X194210000Y-96640000D02*
X194210000Y-97865300D01*
X194210000Y-97865300D02*
X194669500Y-97865300D01*
X194669500Y-97865300D02*
X195435400Y-98631200D01*
X195435400Y-98631200D02*
X195435400Y-99698400D01*
X195435400Y-99698400D02*
X194683900Y-100449900D01*
X194683900Y-100449900D02*
X152441400Y-100449900D01*
X152441400Y-100449900D02*
X150639300Y-102252000D01*
%TO.N,/motro_pwm*%
X194210000Y-86480000D02*
X192984700Y-86480000D01*
X192984700Y-86480000D02*
X186369600Y-93095100D01*
X186369600Y-93095100D02*
X149274000Y-93095100D01*
X149274000Y-93095100D02*
X147510900Y-91332000D01*
X147510900Y-91332000D02*
X147510900Y-87726900D01*
X147510900Y-87726900D02*
X145240000Y-85456000D01*
%TO.N,/motor_inb*%
X192984700Y-71240000D02*
X180038700Y-84186000D01*
X180038700Y-84186000D02*
X150320000Y-84186000D01*
X194210000Y-71240000D02*
X192984700Y-71240000D01*
D19*
%TO.N,+12V*%
X145240000Y-87996000D02*
X143439700Y-87996000D01*
X158448000Y-112126000D02*
X156147700Y-112126000D01*
X156147700Y-112126000D02*
X145087300Y-101065600D01*
X145087300Y-101065600D02*
X145087300Y-93010700D01*
X145087300Y-93010700D02*
X143439700Y-91363100D01*
X143439700Y-91363100D02*
X143439700Y-87996000D01*
%TD*%
M02*
