%TF.GenerationSoftware,KiCad,Pcbnew,(5.1.6)-1*%
%TF.CreationDate,2021-07-06T14:07:52+07:00*%
%TF.ProjectId,test1,74657374-312e-46b6-9963-61645f706362,rev?*%
%TF.SameCoordinates,Original*%
%TF.FileFunction,Copper,L2,Bot*%
%TF.FilePolarity,Positive*%
%FSLAX46Y46*%
G04 Gerber Fmt 4.6, Leading zero omitted, Abs format (unit mm)*
G04 Created by KiCad (PCBNEW (5.1.6)-1) date 2021-07-06 14:07:52*
%MOMM*%
%LPD*%
G01*
G04 APERTURE LIST*
%TA.AperFunction,ComponentPad*%
%ADD10R,0.800000X1.250000*%
%TD*%
%TA.AperFunction,ComponentPad*%
%ADD11O,0.800000X1.250000*%
%TD*%
%TA.AperFunction,ComponentPad*%
%ADD12O,1.905000X2.000000*%
%TD*%
%TA.AperFunction,ComponentPad*%
%ADD13R,1.905000X2.000000*%
%TD*%
%TA.AperFunction,ComponentPad*%
%ADD14O,1.600000X1.600000*%
%TD*%
%TA.AperFunction,ComponentPad*%
%ADD15C,1.600000*%
%TD*%
%TA.AperFunction,ComponentPad*%
%ADD16O,1.700000X2.000000*%
%TD*%
%TA.AperFunction,ComponentPad*%
%ADD17O,1.700000X1.950000*%
%TD*%
%TA.AperFunction,ComponentPad*%
%ADD18O,2.200000X2.200000*%
%TD*%
%TA.AperFunction,ComponentPad*%
%ADD19R,2.200000X2.200000*%
%TD*%
%TA.AperFunction,ComponentPad*%
%ADD20C,1.800000*%
%TD*%
%TA.AperFunction,ComponentPad*%
%ADD21R,1.800000X1.800000*%
%TD*%
%TA.AperFunction,ComponentPad*%
%ADD22O,1.800000X1.800000*%
%TD*%
%TA.AperFunction,ComponentPad*%
%ADD23C,2.800000*%
%TD*%
%TA.AperFunction,ComponentPad*%
%ADD24R,2.800000X2.800000*%
%TD*%
%TA.AperFunction,ComponentPad*%
%ADD25O,1.700000X1.700000*%
%TD*%
%TA.AperFunction,ComponentPad*%
%ADD26R,1.700000X1.700000*%
%TD*%
%TA.AperFunction,Conductor*%
%ADD27C,0.750000*%
%TD*%
G04 APERTURE END LIST*
D10*
%TO.P,U3,1*%
%TO.N,+3V3*%
X156162000Y-100188000D03*
D11*
%TO.P,U3,3*%
%TO.N,+5V*%
X158702000Y-100188000D03*
%TO.P,U3,2*%
%TO.N,GND*%
X157432000Y-100188000D03*
%TD*%
D12*
%TO.P,U1,3*%
%TO.N,+5V*%
X187404000Y-91044000D03*
%TO.P,U1,2*%
%TO.N,GND*%
X184864000Y-91044000D03*
D13*
%TO.P,U1,1*%
%TO.N,+12V*%
X182324000Y-91044000D03*
%TD*%
D14*
%TO.P,R100,2*%
%TO.N,Net-(D1-Pad1)*%
X181054000Y-96124000D03*
D15*
%TO.P,R100,1*%
%TO.N,GND*%
X181054000Y-103744000D03*
%TD*%
D16*
%TO.P,limit switch,2*%
%TO.N,GND*%
X166028000Y-109078000D03*
%TO.P,limit switch,1*%
%TO.N,/limit_switch*%
%TA.AperFunction,ComponentPad*%
G36*
G01*
X162678000Y-109828000D02*
X162678000Y-108328000D01*
G75*
G02*
X162928000Y-108078000I250000J0D01*
G01*
X164128000Y-108078000D01*
G75*
G02*
X164378000Y-108328000I0J-250000D01*
G01*
X164378000Y-109828000D01*
G75*
G02*
X164128000Y-110078000I-250000J0D01*
G01*
X162928000Y-110078000D01*
G75*
G02*
X162678000Y-109828000I0J250000D01*
G01*
G37*
%TD.AperFunction*%
%TD*%
D17*
%TO.P,end-effector,4*%
%TO.N,GND*%
X188808000Y-110602000D03*
%TO.P,end-effector,3*%
%TO.N,/I2C_SDA*%
X186308000Y-110602000D03*
%TO.P,end-effector,2*%
%TO.N,/I2C_SCL*%
X183808000Y-110602000D03*
%TO.P,end-effector,1*%
%TO.N,+12V*%
%TA.AperFunction,ComponentPad*%
G36*
G01*
X180458000Y-111327000D02*
X180458000Y-109877000D01*
G75*
G02*
X180708000Y-109627000I250000J0D01*
G01*
X181908000Y-109627000D01*
G75*
G02*
X182158000Y-109877000I0J-250000D01*
G01*
X182158000Y-111327000D01*
G75*
G02*
X181908000Y-111577000I-250000J0D01*
G01*
X180708000Y-111577000D01*
G75*
G02*
X180458000Y-111327000I0J250000D01*
G01*
G37*
%TD.AperFunction*%
%TD*%
D18*
%TO.P,D6,2*%
%TO.N,GND*%
X166830000Y-92314000D03*
D19*
%TO.P,D6,1*%
%TO.N,Net-(D5-Pad2)*%
X156670000Y-92314000D03*
%TD*%
D18*
%TO.P,D5,2*%
%TO.N,Net-(D5-Pad2)*%
X166830000Y-87996000D03*
D19*
%TO.P,D5,1*%
%TO.N,+12V*%
X156670000Y-87996000D03*
%TD*%
D18*
%TO.P,D4,2*%
%TO.N,GND*%
X152098000Y-92314000D03*
D19*
%TO.P,D4,1*%
%TO.N,Net-(D3-Pad2)*%
X141938000Y-92314000D03*
%TD*%
D18*
%TO.P,D3,2*%
%TO.N,Net-(D3-Pad2)*%
X152098000Y-87996000D03*
D19*
%TO.P,D3,1*%
%TO.N,+12V*%
X141938000Y-87996000D03*
%TD*%
D20*
%TO.P,D2,2*%
%TO.N,+3V3*%
X174704000Y-108824000D03*
D21*
%TO.P,D2,1*%
%TO.N,GND*%
X172164000Y-108824000D03*
%TD*%
D20*
%TO.P,D1,2*%
%TO.N,+5V*%
X157432000Y-108824000D03*
D21*
%TO.P,D1,1*%
%TO.N,Net-(D1-Pad1)*%
X154892000Y-108824000D03*
%TD*%
D15*
%TO.P,C4,2*%
%TO.N,GND*%
X166290000Y-99934000D03*
%TO.P,C4,1*%
%TO.N,+3V3*%
X164290000Y-99934000D03*
%TD*%
%TO.P,C3,2*%
%TO.N,GND*%
X188388000Y-99172000D03*
%TO.P,C3,1*%
%TO.N,+5V*%
X186388000Y-99172000D03*
%TD*%
%TO.P,C2,2*%
%TO.N,GND*%
X175680000Y-99680000D03*
%TO.P,C2,1*%
%TO.N,+5V*%
X173180000Y-99680000D03*
%TD*%
%TO.P,C1,2*%
%TO.N,GND*%
X175680000Y-90028000D03*
%TO.P,C1,1*%
%TO.N,+12V*%
X173180000Y-90028000D03*
%TD*%
D22*
%TO.P,U2,15*%
%TO.N,GND*%
X173688000Y-83170000D03*
%TO.P,U2,14*%
%TO.N,Net-(U2-Pad14)*%
X172418000Y-78090000D03*
%TO.P,U2,13*%
%TO.N,Net-(U2-Pad13)*%
X171148000Y-83170000D03*
%TO.P,U2,12*%
%TO.N,Net-(U2-Pad12)*%
X169878000Y-78090000D03*
%TO.P,U2,11*%
%TO.N,Net-(U2-Pad11)*%
X168608000Y-83170000D03*
%TO.P,U2,10*%
%TO.N,Net-(U2-Pad10)*%
X167338000Y-78090000D03*
%TO.P,U2,9*%
%TO.N,+3V3*%
X166068000Y-83170000D03*
%TO.P,U2,8*%
%TO.N,GND*%
X164798000Y-78090000D03*
%TO.P,U2,7*%
%TO.N,/motor_pwm2*%
X163528000Y-83170000D03*
%TO.P,U2,6*%
%TO.N,+5V*%
X162258000Y-78090000D03*
%TO.P,U2,5*%
%TO.N,/motor_pwm1*%
X160988000Y-83170000D03*
%TO.P,U2,4*%
%TO.N,+12V*%
X159718000Y-78090000D03*
%TO.P,U2,3*%
%TO.N,Net-(D5-Pad2)*%
X158448000Y-83170000D03*
%TO.P,U2,2*%
%TO.N,Net-(D3-Pad2)*%
X157178000Y-78090000D03*
D21*
%TO.P,U2,1*%
%TO.N,GND*%
X155908000Y-83170000D03*
%TD*%
D14*
%TO.P,R2,2*%
%TO.N,/enc_b*%
X149464000Y-102252000D03*
D15*
%TO.P,R2,1*%
%TO.N,+5V*%
X141844000Y-102252000D03*
%TD*%
D14*
%TO.P,R1,2*%
%TO.N,/enc_a*%
X149464000Y-98202000D03*
D15*
%TO.P,R1,1*%
%TO.N,+5V*%
X141844000Y-98202000D03*
%TD*%
D23*
%TO.P,J3,2*%
%TO.N,GND*%
X142272000Y-77328000D03*
D24*
%TO.P,J3,1*%
%TO.N,+12V*%
X147272000Y-77328000D03*
%TD*%
D23*
%TO.P,J2,2*%
%TO.N,Net-(D5-Pad2)*%
X182912000Y-77582000D03*
D24*
%TO.P,J2,1*%
%TO.N,Net-(D3-Pad2)*%
X187912000Y-77582000D03*
%TD*%
D17*
%TO.P,encoder,4*%
%TO.N,GND*%
X148930000Y-110602000D03*
%TO.P,encoder,3*%
%TO.N,/enc_b*%
X146430000Y-110602000D03*
%TO.P,encoder,2*%
%TO.N,/enc_a*%
X143930000Y-110602000D03*
%TO.P,encoder,1*%
%TO.N,+5V*%
%TA.AperFunction,ComponentPad*%
G36*
G01*
X140580000Y-111327000D02*
X140580000Y-109877000D01*
G75*
G02*
X140830000Y-109627000I250000J0D01*
G01*
X142030000Y-109627000D01*
G75*
G02*
X142280000Y-109877000I0J-250000D01*
G01*
X142280000Y-111327000D01*
G75*
G02*
X142030000Y-111577000I-250000J0D01*
G01*
X140830000Y-111577000D01*
G75*
G02*
X140580000Y-111327000I0J250000D01*
G01*
G37*
%TD.AperFunction*%
%TD*%
D25*
%TO.P,CN10,38*%
%TO.N,Net-(CN10-Pad38)*%
X196750000Y-116960000D03*
%TO.P,CN10,37*%
%TO.N,Net-(CN10-Pad37)*%
X194210000Y-116960000D03*
%TO.P,CN10,36*%
%TO.N,Net-(CN10-Pad36)*%
X196750000Y-114420000D03*
%TO.P,CN10,35*%
%TO.N,Net-(CN10-Pad35)*%
X194210000Y-114420000D03*
%TO.P,CN10,34*%
%TO.N,Net-(CN10-Pad34)*%
X196750000Y-111880000D03*
%TO.P,CN10,33*%
%TO.N,Net-(CN10-Pad33)*%
X194210000Y-111880000D03*
%TO.P,CN10,32*%
%TO.N,Net-(CN10-Pad32)*%
X196750000Y-109340000D03*
%TO.P,CN10,31*%
%TO.N,Net-(CN10-Pad31)*%
X194210000Y-109340000D03*
%TO.P,CN10,30*%
%TO.N,Net-(CN10-Pad30)*%
X196750000Y-106800000D03*
%TO.P,CN10,29*%
%TO.N,Net-(CN10-Pad29)*%
X194210000Y-106800000D03*
%TO.P,CN10,28*%
%TO.N,Net-(CN10-Pad28)*%
X196750000Y-104260000D03*
%TO.P,CN10,27*%
%TO.N,Net-(CN10-Pad27)*%
X194210000Y-104260000D03*
%TO.P,CN10,26*%
%TO.N,Net-(CN10-Pad26)*%
X196750000Y-101720000D03*
%TO.P,CN10,25*%
%TO.N,Net-(CN10-Pad25)*%
X194210000Y-101720000D03*
%TO.P,CN10,24*%
%TO.N,Net-(CN10-Pad24)*%
X196750000Y-99180000D03*
%TO.P,CN10,23*%
%TO.N,/enc_a*%
X194210000Y-99180000D03*
%TO.P,CN10,22*%
%TO.N,Net-(CN10-Pad22)*%
X196750000Y-96640000D03*
%TO.P,CN10,21*%
%TO.N,/enc_b*%
X194210000Y-96640000D03*
%TO.P,CN10,20*%
%TO.N,Net-(CN10-Pad20)*%
X196750000Y-94100000D03*
%TO.P,CN10,19*%
%TO.N,/limit_switch*%
X194210000Y-94100000D03*
%TO.P,CN10,18*%
%TO.N,Net-(CN10-Pad18)*%
X196750000Y-91560000D03*
%TO.P,CN10,17*%
%TO.N,Net-(CN10-Pad17)*%
X194210000Y-91560000D03*
%TO.P,CN10,16*%
%TO.N,Net-(CN10-Pad16)*%
X196750000Y-89020000D03*
%TO.P,CN10,15*%
%TO.N,/motor_pwm2*%
X194210000Y-89020000D03*
%TO.P,CN10,14*%
%TO.N,Net-(CN10-Pad14)*%
X196750000Y-86480000D03*
%TO.P,CN10,13*%
%TO.N,/motor_pwm1*%
X194210000Y-86480000D03*
%TO.P,CN10,12*%
%TO.N,Net-(CN10-Pad12)*%
X196750000Y-83940000D03*
%TO.P,CN10,11*%
%TO.N,Net-(CN10-Pad11)*%
X194210000Y-83940000D03*
%TO.P,CN10,10*%
%TO.N,Net-(CN10-Pad10)*%
X196750000Y-81400000D03*
%TO.P,CN10,9*%
%TO.N,Net-(CN10-Pad9)*%
X194210000Y-81400000D03*
%TO.P,CN10,8*%
%TO.N,Net-(CN10-Pad8)*%
X196750000Y-78860000D03*
%TO.P,CN10,7*%
%TO.N,Net-(CN10-Pad7)*%
X194210000Y-78860000D03*
%TO.P,CN10,6*%
%TO.N,Net-(CN10-Pad6)*%
X196750000Y-76320000D03*
%TO.P,CN10,5*%
%TO.N,/I2C_SDA*%
X194210000Y-76320000D03*
%TO.P,CN10,4*%
%TO.N,Net-(CN10-Pad4)*%
X196750000Y-73780000D03*
%TO.P,CN10,3*%
%TO.N,/I2C_SCL*%
X194210000Y-73780000D03*
%TO.P,CN10,2*%
%TO.N,Net-(CN10-Pad2)*%
X196750000Y-71240000D03*
D26*
%TO.P,CN10,1*%
%TO.N,Net-(CN10-Pad1)*%
X194210000Y-71240000D03*
%TD*%
D25*
%TO.P,CN7,38*%
%TO.N,Net-(CN7-Pad38)*%
X135790000Y-116960000D03*
%TO.P,CN7,37*%
%TO.N,Net-(CN7-Pad37)*%
X133250000Y-116960000D03*
%TO.P,CN7,36*%
%TO.N,Net-(CN7-Pad36)*%
X135790000Y-114420000D03*
%TO.P,CN7,35*%
%TO.N,Net-(CN7-Pad35)*%
X133250000Y-114420000D03*
%TO.P,CN7,34*%
%TO.N,Net-(CN7-Pad34)*%
X135790000Y-111880000D03*
%TO.P,CN7,33*%
%TO.N,Net-(CN7-Pad33)*%
X133250000Y-111880000D03*
%TO.P,CN7,32*%
%TO.N,Net-(CN7-Pad32)*%
X135790000Y-109340000D03*
%TO.P,CN7,31*%
%TO.N,Net-(CN7-Pad31)*%
X133250000Y-109340000D03*
%TO.P,CN7,30*%
%TO.N,Net-(CN7-Pad30)*%
X135790000Y-106800000D03*
%TO.P,CN7,29*%
%TO.N,Net-(CN7-Pad29)*%
X133250000Y-106800000D03*
%TO.P,CN7,28*%
%TO.N,Net-(CN7-Pad28)*%
X135790000Y-104260000D03*
%TO.P,CN7,27*%
%TO.N,Net-(CN7-Pad27)*%
X133250000Y-104260000D03*
%TO.P,CN7,26*%
%TO.N,Net-(CN7-Pad26)*%
X135790000Y-101720000D03*
%TO.P,CN7,25*%
%TO.N,Net-(CN7-Pad25)*%
X133250000Y-101720000D03*
%TO.P,CN7,24*%
%TO.N,+12V*%
X135790000Y-99180000D03*
%TO.P,CN7,23*%
%TO.N,Net-(CN7-Pad23)*%
X133250000Y-99180000D03*
%TO.P,CN7,22*%
%TO.N,GND*%
X135790000Y-96640000D03*
%TO.P,CN7,21*%
%TO.N,Net-(CN7-Pad21)*%
X133250000Y-96640000D03*
%TO.P,CN7,20*%
%TO.N,Net-(CN7-Pad20)*%
X135790000Y-94100000D03*
%TO.P,CN7,19*%
%TO.N,Net-(CN7-Pad19)*%
X133250000Y-94100000D03*
%TO.P,CN7,18*%
%TO.N,Net-(CN7-Pad18)*%
X135790000Y-91560000D03*
%TO.P,CN7,17*%
%TO.N,Net-(CN7-Pad17)*%
X133250000Y-91560000D03*
%TO.P,CN7,16*%
%TO.N,Net-(CN7-Pad16)*%
X135790000Y-89020000D03*
%TO.P,CN7,15*%
%TO.N,Net-(CN7-Pad15)*%
X133250000Y-89020000D03*
%TO.P,CN7,14*%
%TO.N,Net-(CN7-Pad14)*%
X135790000Y-86480000D03*
%TO.P,CN7,13*%
%TO.N,Net-(CN7-Pad13)*%
X133250000Y-86480000D03*
%TO.P,CN7,12*%
%TO.N,Net-(CN7-Pad12)*%
X135790000Y-83940000D03*
%TO.P,CN7,11*%
%TO.N,Net-(CN7-Pad11)*%
X133250000Y-83940000D03*
%TO.P,CN7,10*%
%TO.N,Net-(CN7-Pad10)*%
X135790000Y-81400000D03*
%TO.P,CN7,9*%
%TO.N,Net-(CN7-Pad9)*%
X133250000Y-81400000D03*
%TO.P,CN7,8*%
%TO.N,Net-(CN7-Pad8)*%
X135790000Y-78860000D03*
%TO.P,CN7,7*%
%TO.N,Net-(CN7-Pad7)*%
X133250000Y-78860000D03*
%TO.P,CN7,6*%
%TO.N,Net-(CN7-Pad6)*%
X135790000Y-76320000D03*
%TO.P,CN7,5*%
%TO.N,Net-(CN7-Pad5)*%
X133250000Y-76320000D03*
%TO.P,CN7,4*%
%TO.N,Net-(CN7-Pad4)*%
X135790000Y-73780000D03*
%TO.P,CN7,3*%
%TO.N,Net-(CN7-Pad3)*%
X133250000Y-73780000D03*
%TO.P,CN7,2*%
%TO.N,Net-(CN7-Pad2)*%
X135790000Y-71240000D03*
D26*
%TO.P,CN7,1*%
%TO.N,Net-(CN7-Pad1)*%
X133250000Y-71240000D03*
%TD*%
D27*
%TO.N,GND*%
X152098000Y-92314000D02*
X152098000Y-90464000D01*
X155908000Y-83170000D02*
X155908000Y-84820000D01*
X155908000Y-84820000D02*
X154690600Y-86037400D01*
X154690600Y-86037400D02*
X154690600Y-87871400D01*
X154690600Y-87871400D02*
X152098000Y-90464000D01*
X173688000Y-83170000D02*
X173688000Y-81520000D01*
X164798000Y-78090000D02*
X166331900Y-76556100D01*
X166331900Y-76556100D02*
X173054800Y-76556100D01*
X173054800Y-76556100D02*
X173969900Y-77471200D01*
X173969900Y-77471200D02*
X173969900Y-81238100D01*
X173969900Y-81238100D02*
X173688000Y-81520000D01*
X166028000Y-109078000D02*
X166028000Y-107328000D01*
X157432000Y-101082300D02*
X163677700Y-107328000D01*
X163677700Y-107328000D02*
X166028000Y-107328000D01*
X157432000Y-101082300D02*
X157432000Y-101688000D01*
X157432000Y-100188000D02*
X157432000Y-101082300D01*
X148930000Y-110602000D02*
X150530000Y-110602000D01*
X152724700Y-101688000D02*
X152724700Y-94790700D01*
X152724700Y-94790700D02*
X152098000Y-94164000D01*
X150530000Y-110602000D02*
X150530000Y-103882700D01*
X150530000Y-103882700D02*
X152724700Y-101688000D01*
X152724700Y-101688000D02*
X157432000Y-101688000D01*
X152098000Y-92314000D02*
X152098000Y-94164000D01*
X172164000Y-108824000D02*
X170514000Y-108824000D01*
X166028000Y-109078000D02*
X170260000Y-109078000D01*
X170260000Y-109078000D02*
X170514000Y-108824000D01*
X166290000Y-99934000D02*
X166830000Y-99394000D01*
X166830000Y-99394000D02*
X166830000Y-92314000D01*
X184983300Y-99814700D02*
X184864000Y-99695500D01*
X184864000Y-99695500D02*
X184864000Y-91044000D01*
X188388000Y-99172000D02*
X188388000Y-99244400D01*
X188388000Y-99244400D02*
X187020500Y-100611900D01*
X187020500Y-100611900D02*
X185780400Y-100611900D01*
X185780400Y-100611900D02*
X184983300Y-99814700D01*
X184983300Y-99814700D02*
X181054000Y-103744000D01*
X188808000Y-110602000D02*
X187162900Y-112247100D01*
X187162900Y-112247100D02*
X175587100Y-112247100D01*
X175587100Y-112247100D02*
X172164000Y-108824000D01*
X175680000Y-99680000D02*
X176990000Y-99680000D01*
X176990000Y-99680000D02*
X181054000Y-103744000D01*
X175680000Y-90028000D02*
X175680000Y-99680000D01*
%TO.N,+5V*%
X141574300Y-110457700D02*
X143326600Y-112210000D01*
X143326600Y-112210000D02*
X154307500Y-112210000D01*
X154307500Y-112210000D02*
X157432000Y-109085500D01*
X157432000Y-109085500D02*
X157432000Y-108824000D01*
X141574300Y-110457700D02*
X141430000Y-110602000D01*
X141844000Y-102252000D02*
X141844000Y-110188000D01*
X141844000Y-110188000D02*
X141574300Y-110457700D01*
X141844000Y-98202000D02*
X141844000Y-102252000D01*
X162258000Y-78090000D02*
X160713100Y-76545100D01*
X160713100Y-76545100D02*
X156527400Y-76545100D01*
X156527400Y-76545100D02*
X144567600Y-88504900D01*
X144567600Y-88504900D02*
X144567600Y-95478400D01*
X144567600Y-95478400D02*
X141844000Y-98202000D01*
X187404000Y-91044000D02*
X187404000Y-92794000D01*
X186388000Y-99172000D02*
X186388000Y-93810000D01*
X186388000Y-93810000D02*
X187404000Y-92794000D01*
%TO.N,+3V3*%
X164290000Y-99934000D02*
X164290000Y-100031900D01*
X164290000Y-100031900D02*
X170767300Y-106509200D01*
X170767300Y-106509200D02*
X172534000Y-106509200D01*
X172534000Y-106509200D02*
X174704000Y-108679200D01*
X174704000Y-108679200D02*
X174704000Y-108824000D01*
X164290000Y-98688000D02*
X164290000Y-99934000D01*
X166068000Y-84820000D02*
X164290000Y-86598000D01*
X164290000Y-86598000D02*
X164290000Y-98688000D01*
X164290000Y-98688000D02*
X156162000Y-98688000D01*
X156162000Y-100188000D02*
X156162000Y-98688000D01*
X166068000Y-83170000D02*
X166068000Y-84820000D01*
%TO.N,+12V*%
X173180000Y-90028000D02*
X171738100Y-91469900D01*
X171738100Y-91469900D02*
X171738100Y-101032100D01*
X171738100Y-101032100D02*
X181308000Y-110602000D01*
X141938000Y-87996000D02*
X141938000Y-86146000D01*
X147272000Y-77328000D02*
X147272000Y-80812000D01*
X147272000Y-80812000D02*
X141938000Y-86146000D01*
X141938000Y-87996000D02*
X141938000Y-89846000D01*
X135790000Y-99180000D02*
X140088000Y-94882000D01*
X140088000Y-94882000D02*
X140088000Y-91002200D01*
X140088000Y-91002200D02*
X141244200Y-89846000D01*
X141244200Y-89846000D02*
X141938000Y-89846000D01*
%TO.N,/I2C_SDA*%
X194210000Y-76320000D02*
X192393600Y-78136400D01*
X192393600Y-78136400D02*
X192393600Y-104516400D01*
X192393600Y-104516400D02*
X186308000Y-110602000D01*
%TO.N,/I2C_SCL*%
X194210000Y-73780000D02*
X190893200Y-77096800D01*
X190893200Y-77096800D02*
X190893200Y-103516800D01*
X190893200Y-103516800D02*
X183808000Y-110602000D01*
%TO.N,Net-(D3-Pad2)*%
X157178000Y-78090000D02*
X157178000Y-79740000D01*
X157178000Y-79740000D02*
X156636600Y-79740000D01*
X156636600Y-79740000D02*
X152098000Y-84278600D01*
X152098000Y-84278600D02*
X152098000Y-87996000D01*
%TO.N,Net-(D5-Pad2)*%
X156670000Y-92314000D02*
X156670000Y-90464000D01*
X158448000Y-83170000D02*
X158448000Y-89352800D01*
X158448000Y-89352800D02*
X157336800Y-90464000D01*
X157336800Y-90464000D02*
X156670000Y-90464000D01*
X182912000Y-77582000D02*
X172498000Y-87996000D01*
X172498000Y-87996000D02*
X166830000Y-87996000D01*
%TD*%
M02*
