M48
; DRILL file {KiCad (5.1.6)-1} date 06/09/21 14:39:32
; FORMAT={-:-/ absolute / inch / decimal}
; #@! TF.CreationDate,2021-06-09T14:39:32+07:00
; #@! TF.GenerationSoftware,Kicad,Pcbnew,(5.1.6)-1
; #@! TF.FileFunction,Plated,1,2,PTH
FMAT,2
INCH
T1C0.0315
T2C0.0374
T3C0.0394
T4C0.0551
%
G90
G05
T1
X5.5844Y-4.0257
X5.8844Y-4.0257
X5.5844Y-3.8662
X5.8844Y-3.8662
T2
X5.5781Y-4.3644
X5.6765Y-4.3644
X5.775Y-4.3644
X5.8734Y-4.3644
T3
X5.7181Y-2.9644
X5.7181Y-3.0644
X5.7181Y-3.1644
X5.7181Y-3.2644
X5.7181Y-3.3644
X5.7181Y-3.4644
X5.7181Y-3.5644
X5.9181Y-2.9144
X5.9181Y-3.0144
X5.9181Y-3.1144
X5.9181Y-3.2144
X5.9181Y-3.3144
X5.9181Y-3.4144
X5.9181Y-3.5144
X5.9181Y-3.6144
X7.6461Y-2.8047
X7.6461Y-2.9047
X7.6461Y-3.0047
X7.6461Y-3.1047
X7.6461Y-3.2047
X7.6461Y-3.3047
X7.6461Y-3.4047
X7.6461Y-3.5047
X7.6461Y-3.6047
X7.6461Y-3.7047
X7.6461Y-3.8047
X7.6461Y-3.9047
X7.6461Y-4.0047
X7.6461Y-4.1047
X7.6461Y-4.2047
X7.6461Y-4.3047
X7.6461Y-4.4047
X7.6461Y-4.5047
X7.6461Y-4.6047
X7.7461Y-2.8047
X7.7461Y-2.9047
X7.7461Y-3.0047
X7.7461Y-3.1047
X7.7461Y-3.2047
X7.7461Y-3.3047
X7.7461Y-3.4047
X7.7461Y-3.5047
X7.7461Y-3.6047
X7.7461Y-3.7047
X7.7461Y-3.8047
X7.7461Y-3.9047
X7.7461Y-4.0047
X7.7461Y-4.1047
X7.7461Y-4.2047
X7.7461Y-4.3047
X7.7461Y-4.4047
X7.7461Y-4.5047
X7.7461Y-4.6047
X5.2461Y-2.8047
X5.2461Y-2.9047
X5.2461Y-3.0047
X5.2461Y-3.1047
X5.2461Y-3.2047
X5.2461Y-3.3047
X5.2461Y-3.4047
X5.2461Y-3.5047
X5.2461Y-3.6047
X5.2461Y-3.7047
X5.2461Y-3.8047
X5.2461Y-3.9047
X5.2461Y-4.0047
X5.2461Y-4.1047
X5.2461Y-4.2047
X5.2461Y-4.3047
X5.2461Y-4.4047
X5.2461Y-4.5047
X5.2461Y-4.6047
X5.3461Y-2.8047
X5.3461Y-2.9047
X5.3461Y-3.0047
X5.3461Y-3.1047
X5.3461Y-3.2047
X5.3461Y-3.3047
X5.3461Y-3.4047
X5.3461Y-3.5047
X5.3461Y-3.6047
X5.3461Y-3.7047
X5.3461Y-3.8047
X5.3461Y-3.9047
X5.3461Y-4.0047
X5.3461Y-4.1047
X5.3461Y-4.2047
X5.3461Y-4.3047
X5.3461Y-4.4047
X5.3461Y-4.5047
X5.3461Y-4.6047
T4
X6.7681Y-4.4144
X6.965Y-4.4144
X6.2381Y-4.4144
X6.435Y-4.4144
T0
M30
